# xmcd
#
# Track frame offsets: 
#        150
#        16946
#        34857
#        68856
#        82070
#        94591
#        108458
#        121048
#        134639
#        162899
#        191507
#        214791
#        225773
#        249628
#        265312
#        280863
#
# Disc length: 3990 seconds
#
# Revision: 2
# Processed by: cddbd v1.5.2PL0 Copyright (c) Steve Scherf et al.
# Submitted via: ExactAudioCopyFreeDBPlugin 1.0
#
DISCID=d80f9410
DTITLE=James Brown - And I Do Just What I Want [CD2]
DYEAR=2006
DGENRE=Soul
TTITLE0=Message To Michael
TTITLE1=Nature
TTITLE2=Cold Sweat
TTITLE3=Choo-Choo (Locomotion)
TTITLE4=Stone Fox
TTITLE5=Just Plain Funk
TTITLE6=Say It Loud I'm Black And I'm Proud
TTITLE7=Santa Claus Go Straight To The Ghetto
TTITLE8=Mother Popcorn
TTITLE9=It's A New Day
TTITLE10=Brother Rap
TTITLE11=Spinning Wheel
TTITLE12=Sex Machine
TTITLE13=Honky Tonk
TTITLE14=Stone To The Bone
TTITLE15=The Future Shock Of The World
EXTD=
EXTT0=
EXTT1=
EXTT2=
EXTT3=
EXTT4=
EXTT5=
EXTT6=
EXTT7=
EXTT8=
EXTT9=
EXTT10=
EXTT11=
EXTT12=
EXTT13=
EXTT14=
EXTT15=
PLAYORDER=
